<svg width="375" height="375" viewBox="0 0 375 375" fill="none" xmlns="http://www.w3.org/2000/svg">
<mask id="path-1-inside-1_285_6437" fill="white">
<path fill-rule="evenodd" clip-rule="evenodd" d="M187.173 0C83.8003 0 0 83.8003 0 187.173C0 290.546 83.8003 374.346 187.173 374.346C290.546 374.346 374.346 290.546 374.346 187.173C374.346 83.8003 290.546 0 187.173 0ZM289.889 278.894C306.105 272.279 316.218 255.975 314.938 238.508L306.138 118.439C304.858 100.973 292.477 86.3165 275.469 82.1364L158.558 53.4022C141.551 49.2221 123.786 56.4688 114.555 71.3521L51.0992 173.662C41.8681 188.545 43.2704 207.68 54.5728 221.058L132.266 313.023C143.569 326.402 162.2 330.981 178.417 324.366L289.889 278.894Z"/>
</mask>
<path d="M306.138 118.439L304.914 118.529L306.138 118.439ZM1.22724 187.173C1.22724 84.4781 84.4781 1.22724 187.173 1.22724V-1.22724C83.1225 -1.22724 -1.22724 83.1225 -1.22724 187.173H1.22724ZM187.173 373.119C84.4781 373.119 1.22724 289.868 1.22724 187.173H-1.22724C-1.22724 291.224 83.1225 375.573 187.173 375.573V373.119ZM373.119 187.173C373.119 289.868 289.868 373.119 187.173 373.119V375.573C291.224 375.573 375.573 291.224 375.573 187.173H373.119ZM187.173 1.22724C289.868 1.22724 373.119 84.4781 373.119 187.173H375.573C375.573 83.1225 291.224 -1.22724 187.173 -1.22724V1.22724ZM304.914 118.529L313.714 238.597L316.162 238.418L307.362 118.35L304.914 118.529ZM158.265 54.5939L275.176 83.3282L275.762 80.9446L158.851 52.2104L158.265 54.5939ZM52.1421 174.309L115.597 71.999L113.512 70.7053L50.0562 173.015L52.1421 174.309ZM133.204 312.231L55.5103 220.266L53.6353 221.85L131.329 313.815L133.204 312.231ZM289.425 277.758L177.953 323.23L178.88 325.503L290.353 280.031L289.425 277.758ZM131.329 313.815C142.974 327.6 162.171 332.318 178.88 325.503L177.953 323.23C162.229 329.644 144.163 325.204 133.204 312.231L131.329 313.815ZM50.0562 173.015C40.5449 188.35 41.9898 208.066 53.6353 221.85L55.5103 220.266C44.551 207.294 43.1912 188.74 52.1421 174.309L50.0562 173.015ZM158.851 52.2104C141.327 47.9034 123.023 55.3701 113.512 70.7053L115.597 71.999C124.548 57.5674 141.774 50.5407 158.265 54.5939L158.851 52.2104ZM313.714 238.597C314.955 255.534 305.15 271.344 289.425 277.758L290.353 280.031C307.061 273.215 317.481 256.415 316.162 238.418L313.714 238.597ZM307.362 118.35C306.043 100.353 293.286 85.2516 275.762 80.9446L275.176 83.3282C291.667 87.3814 303.673 101.593 304.914 118.529L307.362 118.35Z" fill="#FD4D16" mask="url(#path-1-inside-1_285_6437)"/>
</svg>
