<svg width="21" height="20" viewBox="0 0 21 20" fill="none" xmlns="http://www.w3.org/2000/svg">
<path fill-rule="evenodd" clip-rule="evenodd" d="M3.23872 3.61528C-0.20683 7.69375 0.306253 13.7932 4.38472 17.2387C8.46319 20.6843 14.5626 20.1712 18.0082 16.0927C21.4537 12.0142 20.9406 5.91483 16.8622 2.46928C12.7837 -0.976271 6.68427 -0.463188 3.23872 3.61528ZM17.6666 8.85886C17.9461 7.99858 17.6399 7.05614 16.9081 6.52446L11.8776 2.8696C11.1458 2.33792 10.1549 2.33792 9.42306 2.8696L4.39259 6.52446C3.66078 7.05614 3.35457 7.99858 3.63409 8.85887L5.55556 14.7725C5.83508 15.6328 6.63677 16.2153 7.54133 16.2153L13.7593 16.2153C14.6639 16.2153 15.4656 15.6328 15.7451 14.7725L17.6666 8.85886Z" fill="white"/>
</svg>
