<svg width="22" height="22" viewBox="0 0 22 22" fill="none" xmlns="http://www.w3.org/2000/svg">
<path fill-rule="evenodd" clip-rule="evenodd" d="M5.84562 9.89331C7.11203 12.4817 9.15237 14.5945 11.6412 15.9207L13.576 13.9086C13.8135 13.6616 14.1653 13.5793 14.4731 13.689C15.4581 14.0275 16.5222 14.2104 17.6127 14.2104C18.0964 14.2104 18.4922 14.622 18.4922 15.125V18.3171C18.4922 18.8201 18.0964 19.2317 17.6127 19.2317C9.35465 19.2317 2.66199 12.2714 2.66199 3.68294C2.66199 3.1799 3.05774 2.76831 3.54144 2.76831H6.61954C7.10324 2.76831 7.49899 3.1799 7.49899 3.68294C7.49899 4.82624 7.67489 5.9238 8.00029 6.94819C8.09702 7.26831 8.02667 7.62502 7.78042 7.88111L5.84562 9.89331Z" fill="#191A1B"/>
<mask id="mask0_285_6639" style="mask-type:luminance" maskUnits="userSpaceOnUse" x="2" y="2" width="17" height="18">
<path fill-rule="evenodd" clip-rule="evenodd" d="M5.84562 9.89331C7.11203 12.4817 9.15237 14.5945 11.6412 15.9207L13.576 13.9086C13.8135 13.6616 14.1653 13.5793 14.4731 13.689C15.4581 14.0275 16.5222 14.2104 17.6127 14.2104C18.0964 14.2104 18.4922 14.622 18.4922 15.125V18.3171C18.4922 18.8201 18.0964 19.2317 17.6127 19.2317C9.35465 19.2317 2.66199 12.2714 2.66199 3.68294C2.66199 3.1799 3.05774 2.76831 3.54144 2.76831H6.61954C7.10324 2.76831 7.49899 3.1799 7.49899 3.68294C7.49899 4.82624 7.67489 5.9238 8.00029 6.94819C8.09702 7.26831 8.02667 7.62502 7.78042 7.88111L5.84562 9.89331Z" fill="white"/>
</mask>
<g mask="url(#mask0_285_6639)">
<rect x="0.0244141" y="0.0244141" width="21.1069" height="21.9512" fill="#191A1B"/>
</g>
</svg>
